<mxfile host="app.diagrams.net" modified="2021-08-14T00:02:38.900Z" agent="5.0 (Windows NT 10.0; Win64; x64) AppleWebKit/537.36 (KHTML, like Gecko) Chrome/92.0.4515.131 Safari/537.36" etag="qvTeoea-9JbNFb4JJjYF" version="14.9.6" type="github">
  <diagram id="vp8NT03Qx4W_gKdBCRIH" name="Page-1">
    <mxGraphModel dx="1209" dy="626" grid="1" gridSize="10" guides="1" tooltips="1" connect="1" arrows="1" fold="1" page="1" pageScale="1" pageWidth="850" pageHeight="1100" math="0" shadow="0">
      <root>
        <mxCell id="0" />
        <mxCell id="1" parent="0" />
        <mxCell id="5nIQb0ekZ4UEH6ksn6VH-1" value="" style="shape=image;verticalLabelPosition=bottom;labelBackgroundColor=#ffffff;verticalAlign=top;aspect=fixed;imageAspect=0;image=https://2md-tuning-klub.com/content//chmod/chmod-umask-acl.jpg;" vertex="1" parent="1">
          <mxGeometry x="40" y="20" width="755" height="593.84" as="geometry" />
        </mxCell>
      </root>
    </mxGraphModel>
  </diagram>
</mxfile>
